/* XPM */
static char *error[] = {
/* columns rows colors chars-per-pixel */
"48 47 181 2",
"   c #000000",
".  c #0D0000",
"X  c #150000",
"o  c #1D0000",
"O  c #240000",
"+  c #2C0100",
"@  c #320301",
"#  c #3C0501",
"$  c #420401",
"%  c #430A04",
"&  c #4C0100",
"*  c #490E06",
"=  c #4E130A",
"-  c #550301",
";  c #560D05",
":  c #5A0200",
">  c #5A0903",
",  c #541107",
"<  c #551B13",
"1  c #581D13",
"2  c #53271E",
"3  c #592219",
"4  c #5A3028",
"5  c #630100",
"6  c #620C05",
"7  c #6A0200",
"8  c #6A0C04",
"9  c #611409",
"0  c #65190D",
"q  c #691107",
"w  c #6C1308",
"e  c #750100",
"r  c #720802",
"t  c #7C0100",
"y  c #7E0D05",
"u  c #711409",
"i  c #60281E",
"p  c #73281B",
"a  c #652B22",
"s  c #643026",
"d  c #643229",
"f  c #6D3025",
"g  c #733D33",
"h  c #793D31",
"j  c #704137",
"k  c #72443A",
"l  c #77493F",
"z  c #794035",
"x  c #7E473D",
"c  c #6B4D46",
"v  c #6D5049",
"b  c #6F5853",
"n  c #734D45",
"m  c #7B4B41",
"M  c #74514A",
"N  c #7E564C",
"B  c #755952",
"V  c #755E58",
"C  c #795D56",
"Z  c #830300",
"A  c #850F06",
"S  c #8D0401",
"D  c #8E0C05",
"F  c #841C0C",
"G  c #881F0E",
"H  c #920400",
"J  c #930B04",
"K  c #9E0501",
"L  c #9A0B04",
"P  c #931408",
"I  c #8C2A1A",
"U  c #A00603",
"Y  c #A40A04",
"T  c #A80E06",
"R  c #A61308",
"E  c #A6190A",
"W  c #AA1007",
"Q  c #AD1308",
"!  c #AB1B0B",
"~  c #B01609",
"^  c #B41A0B",
"/  c #B81E0D",
"(  c #AE200E",
")  c #AC2111",
"_  c #AA2D15",
"`  c #B3210E",
"'  c #BC210E",
"]  c #B32510",
"[  c #B12318",
"{  c #B42812",
"}  c #BE2310",
"|  c #BB2B13",
" . c #BC3015",
".. c #B73831",
"X. c #914031",
"o. c #BA403A",
"O. c #8B5447",
"+. c #8D5A4D",
"@. c #865C51",
"#. c #8F5D51",
"$. c #995244",
"%. c #915E52",
"&. c #816059",
"*. c #91665C",
"=. c #93695F",
"-. c #996559",
";. c #9B685C",
":. c #896A63",
">. c #94716A",
",. c #A56152",
"<. c #A7695A",
"1. c #AF6C5D",
"2. c #B76353",
"3. c #B36B5A",
"4. c #BE6955",
"5. c #A86E60",
"6. c #A67367",
"7. c #AC7063",
"8. c #A87B70",
"9. c #BB7463",
"0. c #C12510",
"q. c #C52912",
"w. c #C92D14",
"e. c #C33115",
"r. c #C3361F",
"t. c #CD3116",
"y. c #CB351A",
"u. c #CF391C",
"i. c #D03317",
"p. c #D23518",
"a. c #D53919",
"s. c #D93C1B",
"d. c #C83921",
"f. c #DD401D",
"g. c #C74D38",
"h. c #D44227",
"j. c #D64628",
"k. c #DB4121",
"l. c #DD4D2E",
"z. c #D54B31",
"x. c #D1523C",
"c. c #E15C3E",
"v. c #C34E45",
"b. c #C2544D",
"n. c #C55A52",
"m. c #C85E55",
"M. c #C4634E",
"N. c #CC655C",
"B. c #CF685E",
"V. c #D66857",
"C. c #D16A5F",
"Z. c #C37563",
"A. c #C17C6B",
"S. c #C97765",
"D. c #D27263",
"F. c #D67569",
"G. c #D87669",
"H. c #DE7A66",
"J. c #DA796B",
"K. c #E56547",
"L. c #E4684B",
"P. c #E46B50",
"I. c #E6745A",
"U. c #E77F67",
"Y. c #E37E6A",
"T. c #BD8375",
"R. c #BE8578",
"E. c #C5806F",
"W. c #C48375",
"Q. c #C48A7C",
"!. c #DD826F",
"~. c #EA866E",
"^. c #E98A74",
"/. c #C1C1C1",
"(. c gray84",
"). c #DCDCDC",
"_. c #E3E3E3",
"`. c #ECECEC",
"'. c #F3F3F3",
"]. c #F9F9F9",
"[. c None",
/* pixels */
"[.[.[.[.[.[.[.[.[.[.[.[.[.[.[.[.[.[.[.[.[.[.[.[.[.[.[.[.[.[.[.[.[.[.[.[.[.[.[.[.[.[.[.[.[.[.[.[.",
"[.[.[.[.[.[.[.[.[.[.[.[.[.[.[.[.[.[.[.[.[.[.[.[.[.[.[.[.[.[.[.[.[.[.[.[.[.[.[.[.[.[.[.[.[.[.[.[.",
"[.[.[.[.[.[.[.[.[.[.[.[.[.[.[.[.[.[.[.[.[.[.[.[.[.[.[.[.[.[.[.[.[.[.[.[.[.[.[.[.[.[.[.[.[.[.[.[.",
"[.[.[.[.[.[.[.[.[.[.[.[.[.[.[.[.[.[.[.[.[.[.[.[.[.[.[.[.[.[.[.[.[.[.[.[.[.[.[.[.[.[.[.[.[.[.[.[.",
"[.[.[.[.[.[.[.[.[.[.[.[.[.[.4.,.O.m l l k k k g h h 2 [.[.[.[.[.[.[.[.[.[.[.[.[.[.[.[.[.[.[.[.[.",
"[.[.[.[.[.[.[.[.[.[.[.[.3.+.n n %.1.S.!.Y.H.S.2.$.z d s f   [.[.[.[.[.[.[.[.[.[.[.[.[.[.[.[.[.[.",
"[.[.[.[.[.[.[.[.[.[.9.%.c @.A.^.I.c.l.k.a.a.a.a.h.z.g.X.a 3 1   [.[.[.[.[.[.[.[.[.[.[.[.[.[.[.[.",
"[.[.[.[.[.[.[.[.[.<.n N E.~.c.f.s.s.a.a.p.p.p.p.p.t.t.w.r.I < <   [.[.[.[.[.[.[.[.[.[.[.[.[.[.[.",
"[.[.[.[.[.[.[.[.-.c 6.^.c.f.f.s.s.s.a.p.p.p.p.p.t.t.w.w.w.w.{ 0 =   [.[.[.[.[.[.[.[.[.[.[.[.[.[.",
"[.[.[.[.[.[.[.-.c T.I.f.f.f.s.s.a.a.a.p.p.p.t.i.t.w.w.w.q.q.q.] u *   [.[.[.[.[.[.[.[.[.[.[.[.[.",
"[.[.[.[.[.[.;.v Q.K.f.f.s.s.s.a.a.a.p.p.p.w.i.w.w.w.w.w.q.q.0.0.` u *   [.[.[.[.[.[.[.[.[.[.[.[.",
"[.[.[.[.[.5.v W.K.f.f.f.s.s.a.a.a.p.p.p.i.i.i.w.w.w.q.q.q.0.0.0.0.! q *   [.[.[.[.[.[.[.[.[.[.[.",
"[.[.[.[.A.B 8.P.f.f.s.s.s.a.a.a.p.p.i.i.p.w.w.w.w.q.q.0.0.0.0.} 0./ ! ; @   [.[.[.[.[.[.[.[.[.[.",
"[.[.[.[.=.C U.f.f.f.s.s.s.a.a.p.p.p.i.w.w.w.w.w.q.w.0.0.0.0.0./ / / / P %   [.[.[.[.[.[.[.[.[.[.",
"[.[.[.9.B Q.k.f.f.s.s.s.a.a.p.p.p.p.i.w.w.w.w.q.q.0.0.0.0.} ' / ^ / / ! q @   [.[.[.[.[.[.[.[.[.",
"[.[.[.=.:.L.f.s.s.a.a.a.a.p.p.t.i.w.i.w.w.w.0.w.q.0.0.0.' } ' / / / ^ / P %   [.[.[.[.[.[.[.[.[.",
"[.[.Z.V W.f.s.s.s.a.a.a.p.p.i.i.w.i.w.w.w.q.q.q.| 0.0.' ' ' ' ^ ^ ^ ^ ~ E 6 . [.[.[.[.[.[.[.[.[.",
"[.[.7.V L.s.s.s.a.a.a.p.i.i.i.w.w.w.w.w.q.q.q.} 0.' ' ' ' ' / ^ ^ ^ ^ ~ Q A @   [.[.[.[.[.[.[.[.",
"[.[.=.>.k.s.a.a.y. . . .q.| { | { ] ] ] ` ` ` ` ! ! ! ( E E E ) ~ ^ ~ Q Q P %   [.[.[.[.[.[.[.[.",
"[.[.&.1.s.a.a.a. ./.`._._._._._._._._._._._.).).)._.).).).).)._.[ ~ Q Q Q L >   [.[.[.[.[.[.[.[.",
"[.[.C M.a.a.a.a.y.).].].].].].].].].].'.'.'.'.'.'.'.`.'.'.'.`.'.v.Q Q Q R Y 6   [.[.[.[.[.[.[.[.",
"[.[.C x.a.a.a.p.t.).].].].].'.].'.'.'.'.'.'.'.'.`.'.`.'.`.`.`.'.m.Q Q Q T T 7       [.[.[.[.[.[.",
"[.[.C j.a.p.p.p.e.(.].].'.].'.'.'.'.'.'.'.'.`.'.`.'.`.`.`.`.`.'.n.T T T T Y r         [.[.[.[.[.",
"[.[.M u.p.p.t.t.t.).'.'.].'.'.'.'.'.'.`.'.`.`.`.`.`.`._.`.`.`.'.n.Q T T T J 7           [.[.[.[.",
"[.[.M e.p.i.i.t.w.(.'.'.'.'.'.'.`.'.`.`.`.`.`.`.`.`.`.`._.`._.'.n.R T Y Y S >               [.[.",
"[.[.M _ p.y.i.w.u._.'.'.'.'.'.'.].'.].].'.'.'.'.'.`.`.'.'.'.'.'...T T Y L Z &                 [.",
"[.[.m I i.i.w.w.y.v.V.Y.J.J.J.F.F.D.C.C.B.B.N.N.N.N.m.m.n.b.v...T Y Y Y D t @                 [.",
"[.[.x p t.w.t.w.w.w.0.0.0.0.} ' / / / ^ ^ ^ ^ ^ Q ~ Q Q W R T T T T U U Z 7 O                   ",
"[.[.4 3 | w.w.w.q.q.q.0.0.0./ 0./ / / / ^ ^ ^ ~ ~ ~ Q Q R T T Y Y Y U H t :                     ",
"[.[.[.s G w.q.0.q.0.0.0.0./ 0./ / / / / ^ Q Q ^ Q Q T T T T T Y Y U U S e @                     ",
"[.[.[.g 9 0.w.q.q.0.0.0./ / / ^ / / ^ ^ ^ ^ ~ ~ Q T T T T T Y U U U H Z 5 X                     ",
"[.[.[.  3 F q.0.0.0./ 0./ 0./ / ^ ^ ^ ~ Q ~ T ~ W T T T Y Y Y U U K Z e +                       ",
"[.[.[.[.a , ) q.0.0.' ' ' / / ^ ^ ^ ~ ~ Q Q Q Q T T T Y Y Y U U K S t - .                       ",
"[.[.[.[.  < 9 ` ' ' ' / / / ^ ^ ^ ^ Q ~ Q Q T T T T Y Y U U U K H t 5 o                         ",
"[.[.[.[.[.  * u / ' ' / / / ^ ^ ^ Q Q Q Q Q T T T Y Y U U U K H t 5 O                           ",
"[.[.[.[.[.[.  * w ! / / ^ ^ ^ Q ~ Q Q Q Q T T T Y Y Y U K K S t 5 +                             ",
"[.[.[.[.[.[.[.  % q E ` ^ ~ ~ ~ Q Q Q T T T T Y Y U U U K Z e : O                               ",
"[.[.[.[.[.[.[.[.  % ; P Q ~ ~ Q Q Q Q T T T Y Y Y U K H t 7 & o                                 ",
"[.[.[.[.[.[.[.[.[.  @ # 8 P R Q Q T T T Y Y Y U U S t 7 : + .                                 [.",
"[.[.[.[.[.[.[.[.[.[.    @ # > y D J Y Y K L S t 7 5 & + X                                     [.",
"[.[.[.[.[.[.[.[.[.[.[.[.    . @ # $ & > > - & $ + O                                       [.[.[.",
"[.[.[.[.[.[.[.[.[.[.[.[.[.[.                                                          [.[.[.[.[.",
"[.[.[.[.[.[.[.[.[.[.[.[.[.[.[.                                                      [.[.[.[.[.[.",
"[.[.[.[.[.[.[.[.[.[.[.[.[.[.[.[.                                                [.[.[.[.[.[.[.[.",
"[.[.[.[.[.[.[.[.[.[.[.[.[.[.[.[.[.[.                                    [.[.[.[.[.[.[.[.[.[.[.[.",
"[.[.[.[.[.[.[.[.[.[.[.[.[.[.[.[.[.[.[.[.[.[.          [.[.    [.[.[.[.[.[.[.[.[.[.[.[.[.[.[.[.[.",
"[.[.[.[.[.[.[.[.[.[.[.[.[.[.[.[.[.[.[.[.[.[.[.[.[.[.[.[.[.[.[.[.[.[.[.[.[.[.[.[.[.[.[.[.[.[.[.[."
};
